<svg xmlns="http://www.w3.org/2000/svg" viewBox="0 0 200 200" fill="none">
  <!-- Central node -->
  <circle cx="100" cy="100" r="20" fill="#2563eb"/>
  <circle cx="100" cy="100" r="13" fill="white" opacity="0.25"/>
  <!-- Connecting lines -->
  <line x1="100" y1="80" x2="100" y2="48" stroke="#93c5fd" stroke-width="2.5" stroke-dasharray="4 3"/>
  <line x1="117" y1="111" x2="144" y2="148" stroke="#93c5fd" stroke-width="2.5" stroke-dasharray="4 3"/>
  <line x1="83" y1="111" x2="56" y2="148" stroke="#93c5fd" stroke-width="2.5" stroke-dasharray="4 3"/>
  <line x1="80" y1="95" x2="48" y2="72" stroke="#93c5fd" stroke-width="2.5" stroke-dasharray="4 3"/>
  <line x1="120" y1="95" x2="152" y2="72" stroke="#93c5fd" stroke-width="2.5" stroke-dasharray="4 3"/>
  <!-- Outer nodes - people circles -->
  <circle cx="100" cy="38" r="16" fill="#dbeafe" stroke="#2563eb" stroke-width="2.5"/>
  <circle cx="100" cy="32" r="5" fill="#2563eb"/>
  <path d="M88 50 Q100 44 112 50" stroke="#2563eb" stroke-width="2.5" fill="none" stroke-linecap="round"/>

  <circle cx="160" cy="62" r="16" fill="#dbeafe" stroke="#2563eb" stroke-width="2.5"/>
  <circle cx="160" cy="56" r="5" fill="#2563eb"/>
  <path d="M148 74 Q160 68 172 74" stroke="#2563eb" stroke-width="2.5" fill="none" stroke-linecap="round"/>

  <circle cx="160" cy="148" r="16" fill="#dbeafe" stroke="#2563eb" stroke-width="2.5"/>
  <circle cx="160" cy="142" r="5" fill="#2563eb"/>
  <path d="M148 160 Q160 154 172 160" stroke="#2563eb" stroke-width="2.5" fill="none" stroke-linecap="round"/>

  <circle cx="40" cy="148" r="16" fill="#dbeafe" stroke="#2563eb" stroke-width="2.5"/>
  <circle cx="40" cy="142" r="5" fill="#2563eb"/>
  <path d="M28 160 Q40 154 52 160" stroke="#2563eb" stroke-width="2.5" fill="none" stroke-linecap="round"/>

  <circle cx="40" cy="62" r="16" fill="#dbeafe" stroke="#2563eb" stroke-width="2.5"/>
  <circle cx="40" cy="56" r="5" fill="#2563eb"/>
  <path d="M28 74 Q40 68 52 74" stroke="#2563eb" stroke-width="2.5" fill="none" stroke-linecap="round"/>
</svg>
