<svg xmlns="http://www.w3.org/2000/svg" viewBox="0 0 200 200" fill="none">
  <!-- Checklist rows, ascending like steps -->
  <!-- Row 1 (bottom) -->
  <rect x="30" y="148" width="140" height="30" rx="6" fill="#dbeafe" stroke="#93c5fd" stroke-width="1.5"/>
  <circle cx="50" cy="163" r="9" fill="#2563eb"/>
  <polyline points="45,163 49,167 56,158" fill="none" stroke="white" stroke-width="2.2" stroke-linecap="round" stroke-linejoin="round"/>
  <rect x="68" y="157" width="72" height="6" rx="3" fill="#93c5fd"/>
  <rect x="68" y="167" width="50" height="4" rx="2" fill="#bfdbfe"/>

  <!-- Row 2 (mid) -->
  <rect x="30" y="108" width="140" height="30" rx="6" fill="#dbeafe" stroke="#93c5fd" stroke-width="1.5"/>
  <circle cx="50" cy="123" r="9" fill="#2563eb"/>
  <polyline points="45,123 49,127 56,118" fill="none" stroke="white" stroke-width="2.2" stroke-linecap="round" stroke-linejoin="round"/>
  <rect x="68" y="117" width="80" height="6" rx="3" fill="#93c5fd"/>
  <rect x="68" y="127" width="55" height="4" rx="2" fill="#bfdbfe"/>

  <!-- Row 3 (upper mid) - in progress -->
  <rect x="30" y="68" width="140" height="30" rx="6" fill="#eff6ff" stroke="#2563eb" stroke-width="2"/>
  <circle cx="50" cy="83" r="9" fill="#dbeafe" stroke="#2563eb" stroke-width="2"/>
  <circle cx="50" cy="83" r="4" fill="#2563eb"/>
  <rect x="68" y="77" width="66" height="6" rx="3" fill="#2563eb" opacity="0.4"/>
  <rect x="68" y="87" width="44" height="4" rx="2" fill="#bfdbfe"/>

  <!-- Row 4 (top) - upcoming -->
  <rect x="30" y="28" width="140" height="30" rx="6" fill="white" stroke="#bfdbfe" stroke-width="1.5"/>
  <circle cx="50" cy="43" r="9" fill="white" stroke="#bfdbfe" stroke-width="2"/>
  <rect x="68" y="37" width="58" height="6" rx="3" fill="#bfdbfe"/>
  <rect x="68" y="47" width="38" height="4" rx="2" fill="#dbeafe"/>
</svg>
